Coordinates
version=1
nRows=7
nColumns=40
inDegrees=yes

Units are S.I. units (second, meters, Newtons, ...)
Angles are in degrees.

endheader
time	pelvis_tilt	pelvis_list	pelvis_rotation	pelvis_tx	pelvis_ty	pelvis_tz	hip_flexion_r	hip_adduction_r	hip_rotation_r	knee_angle_r	knee_angle_r_beta	ankle_angle_r	subtalar_angle_r	mtp_angle_r	hip_flexion_l	hip_adduction_l	hip_rotation_l	knee_angle_l	knee_angle_l_beta	ankle_angle_l	subtalar_angle_l	mtp_angle_l	lumbar_extension	lumbar_bending	lumbar_rotation	arm_flex_r	arm_add_r	arm_rot_r	elbow_flex_r	pro_sup_r	wrist_flex_r	wrist_dev_r	arm_flex_l	arm_add_l	arm_rot_l	elbow_flex_l	pro_sup_l	wrist_flex_l	wrist_dev_l
     43.67500000	     -9.75749399	     -2.45556112	     -0.39167030	      1.09011328	      0.91975867	      0.54046689	     24.87323624	     -1.07530112	     -3.47628410	     23.55839494	     23.55839494	     10.65628290	      0.90662527	     -0.80227013	      9.89055227	    -10.19827560	     -4.90606260	     23.60516864	     23.60516864	     17.67067701	     -5.53620141	      1.24374924	    -11.62772175	      6.46326923	     -1.38987636	      1.28696859	    -19.94314824	    -13.13294378	     57.50312898	     45.48618465	      0.00000000	      0.00000000	     16.77299637	    -15.70245292	      7.36175375	     77.64342727	     47.59213590	      0.00000000	      0.00000000
     43.69571429	     -9.72890182	     -2.41840645	     -0.21396998	      1.09191367	      0.92086482	      0.54577746	     24.17291791	     -0.78140499	     -3.68927821	     23.10656647	     23.10656647	     10.84295687	      1.02542195	     -0.78582784	     10.57863882	    -10.74182935	     -4.71477995	     25.41052368	     25.41052368	     16.62239828	     -5.64511170	     -0.12033990	    -11.47589856	      6.33450916	     -1.08191699	      2.89570466	    -21.13551295	    -11.99572983	     58.44508281	     45.42330181	      0.00000000	      0.00000000	     15.77345395	    -14.96314885	      8.71331720	     71.25207018	     47.40078381	      0.00000000	      0.00000000
     43.71642857	     -9.67668693	     -2.44453246	      0.00986334	      1.09348549	      0.92187739	      0.55082774	     23.43303586	     -0.44160315	     -3.94597287	     22.60276237	     22.60276237	     10.98689852	      1.12675752	     -0.80021747	     11.59837580	    -11.27918166	     -4.02615648	     27.72763438	     27.72763438	     15.13308255	     -6.47694098	     -2.02247167	    -11.41783749	      6.25147417	     -0.91005895	      4.46314438	    -22.18039980	    -11.29675121	     60.01696734	     45.35981439	      0.00000000	      0.00000000	     14.37458603	    -14.52710296	     10.18429848	     65.90781424	     47.21717657	      0.00000000	      0.00000000
     43.73714286	     -9.56275815	     -2.46841988	      0.24224972	      1.09493109	      0.92280745	      0.55570019	     22.68487920	     -0.10713940	     -4.17562636	     22.19004182	     22.19004182	     11.12480420	      1.14089958	     -0.87595378	     12.82725850	    -11.78193683	     -3.12703030	     30.42619005	     30.42619005	     13.00247622	     -7.76897605	     -4.90672040	    -11.41924037	      6.13976869	     -0.70313406	      5.96231926	    -23.03428494	    -10.99534393	     61.92357277	     45.31410629	      0.00000000	      0.00000000	     12.90080650	    -14.14943280	     11.67434884	     60.73571002	     47.03866564	      0.00000000	      0.00000000
     43.75785714	     -9.37542922	     -2.47956560	      0.50582883	      1.09619300	      0.92365910	      0.56032751	     21.96366365	      0.20369675	     -4.35018359	     21.95515967	     21.95515967	     11.27790966	      1.01985159	     -0.87363161	     14.36727365	    -12.22310634	     -2.01196546	     33.77375831	     33.77375831	     11.32189737	     -8.85969768	     -6.04038610	    -11.48802585	      5.98127922	     -0.99309396	      8.19896373	    -23.46524921	    -10.67977846	     63.32075857	     45.27174021	      0.00000000	      0.00000000	     10.78916060	    -13.98878366	     12.39277200	     56.50694505	     46.91165751	      0.00000000	      0.00000000
     43.77857143	     -9.18183838	     -2.55471898	      0.78340229	      1.09734471	      0.92425814	      0.56479532	     21.25320327	      0.58569774	     -4.49778077	     21.73770812	     21.73770812	     11.54179448	      0.79441211	     -0.92228172	     16.08682359	    -12.64285957	     -0.68454084	     37.28129283	     37.28129283	      8.82466735	    -10.47544348	     -8.22710531	    -11.48425031	      5.84627980	     -0.84056729	      9.96611630	    -24.30581608	     -9.69698127	     64.75164320	     45.20861553	      0.00000000	      0.00000000	      9.39834931	    -13.34556751	     13.06805940	     50.81344341	     46.77546093	      0.00000000	      0.00000000
     43.79928571	     -8.96136508	     -2.71601673	      1.13859384	      1.09831666	      0.92455642	      0.56903143	     20.64563752	      1.02336987	     -4.72644249	     21.74189148	     21.74189148	     11.78834781	      0.47055305	     -0.94146522	     18.13799300	    -13.08463733	      0.79699045	     41.30735661	     41.30735661	      6.72031071	    -11.57214468	     -8.89602746	    -11.56553170	      5.78451352	     -0.96978693	     11.94817852	    -24.50079177	     -9.81535938	     66.30987993	     45.17315154	      0.00000000	      0.00000000	      6.93430175	    -13.23404978	     13.60558614	     48.07544343	     46.67302147	      0.00000000	      0.00000000
